<?xml version="1.0" encoding="utf-8"?>
<!-- Generator: Adobe Illustrator 16.0.0, SVG Export Plug-In . SVG Version: 6.00 Build 0)  -->
<!DOCTYPE svg PUBLIC "-//W3C//DTD SVG 1.1//EN" "http://www.w3.org/Graphics/SVG/1.1/DTD/svg11.dtd">
<svg version="1.1" id="Layer_1" xmlns="http://www.w3.org/2000/svg" xmlns:xlink="http://www.w3.org/1999/xlink" x="0px" y="0px"
	 width="30px" height="30px" viewBox="0 0 30 30" enable-background="new 0 0 30 30" xml:space="preserve">
<path fill="#77797B" d="M17.402,4.391c-0.365,0.048-2.24,2.208-2.24,2.208l8.007,8.007c0,0,2.172-1.828,2.209-2.304
	c0.031-0.413-1.797-1.859-1.797-1.859l3.264-3.263c0,0,1.439-2.457-0.297-4.109c-1.695-1.613-3.939-0.127-3.939-0.127l-3.221,3.263
	C19.389,6.208,17.828,4.335,17.402,4.391z"/>
<path fill="#8E9DAF" d="M15.937,9.629L5.09,20.476c-0.842,0.883-1.192,2.281-0.932,3.221L2.293,25.56c0,0-0.362,1.229,0.17,1.779
	c0.545,0.565,1.609,0.255,1.609,0.255l2.048-2.002c0.704,0.247,1.813,0.343,3.291-0.879l10.763-10.762L15.937,9.629z"/>
<path fill="#0071B1" d="M5.641,21h6.151l-3.151,3.219C7.734,25,6.641,25,5.984,24.594c-0.138-0.086-2.922,2.698-2.922,2.698
	l-0.542-0.531l2.588-2.948C4.703,23.188,5.047,21.563,5.641,21z"/>
</svg>
